<svg xmlns="http://www.w3.org/2000/svg" fill="none" viewBox="0 0 48 48" id="github-actions-svg" height="48" width="48">
  <path fill="#4a7ebf" d="M10.34135 0.4999695c5.4351 0 9.84135 4.4048005 9.84135 9.8388805 0 5.34075 -4.25735 9.6845 -9.56395 9.83185 0 0.4519 0.01995 1.30565 0.2757 1.82115 0.35475 0.71495 2.4829 2.04615 4.56995 2.04615h0.7498c0.4712 -3.3545 3.3518 -5.936 6.83695 -5.936 3.47105 0 6.34325 2.5605 6.83175 5.8951h3.8792c0.4887 -3.3346 3.3607 -5.8951 6.83175 -5.8951 3.81405 0 6.9061 3.0911 6.9061 6.9044 0 3.8131 -3.09205 6.9042 -6.9061 6.9042 -3.47105 0 -6.3432 -2.5606 -6.83175 -5.89525h-3.879c-0.48855 3.33465 -3.3607 5.89525 -6.83195 5.89525 -3.4645 0 -6.33275 -2.5507 -6.8294 -5.87625l-0.829 0.0247c-1.365 -0.01025 -2.80705 -0.37475 -3.9653 -1.1617 -0.31575 -0.2146 -0.62685 -0.44005 -0.95135 -0.65365l-0.0001 0.4483c-0.00175 0.1449 -0.0279 2.3237 -0.03 4.7428l-0.00005 0.5122c0.00095 1.58645 0.0135 3.2211 0.05085 4.4134 0.0819 2.61565 2.2095 4.7267 4.5573 5.22085 0.30515 0.0641 0.82985 0.0723 1.16045 0.04375 0.47205 -3.3533 3.35225 -5.9338 6.8366 -5.9338 3.8141 0 6.9061 3.09125 6.9061 6.9044 0 3.8131 -3.092 6.90435 -6.9061 6.90435 -3.4458 0 -6.3015 -2.5233 -6.82095 -5.8224h-0.5974c-4.4863 -0.2449 -7.27555 -4.35975 -7.2269 -7.6969 0.0614 -4.2001 0.01515 -8.4019 0.01445 -12.60305v-1.3887C3.90494 19.0955 0.5 15.1152 0.5 10.33885 0.5 4.90477 4.906065 0.4999695 10.34135 0.4999695ZM23.05115 35.70945c-2.69905 0 -4.8872 2.1876 -4.8872 4.88615 0 2.69855 2.18815 4.88615 4.8872 4.88615 2.69925 0 4.8874 -2.1876 4.8874 -4.88615 0 -2.69855 -2.18815 -4.88615 -4.8874 -4.88615Zm0 -15.5892c-2.69905 0 -4.8872 2.1876 -4.8872 4.88615 0 2.6984 2.18815 4.886 4.8872 4.886 2.69925 0 4.8874 -2.1876 4.8874 -4.886 0 -2.69855 -2.18815 -4.88615 -4.8874 -4.88615Zm17.5427 0c-2.69925 0 -4.8872 2.1876 -4.8872 4.88615 0 2.6984 2.18795 4.886 4.8872 4.886 2.6992 0 4.88735 -2.1876 4.88735 -4.886 0 -2.69855 -2.18815 -4.88615 -4.88735 -4.88615Zm2.7834 2.8289c0.38455 0.38365 0.39515 1.00005 0.03125 1.3963l-0.0294 0.03095 -2.9943 3.00075c-0.38155 0.38245 -0.9941 0.39525 -1.3911 0.03635l-0.0316 -0.02995 -1.46595 -1.44305c-0.3972 -0.391 -0.40225 -1.02995 -0.0111 -1.42705 0.3812 -0.387 0.9976 -0.4016 1.39645 -0.04035l0.03095 0.02945 0.7513 0.7393 2.28605 -2.29085c0.39365 -0.39475 1.03275 -0.3954 1.42745 -0.00185Zm-17.62315 -0.0148c0.38455 0.38365 0.39515 1.00005 0.0313 1.3965l-0.02945 0.03075 -2.9943 3.0008c-0.38155 0.38245 -0.99405 0.3952 -1.3911 0.0363l-0.0316 -0.0299 -1.46595 -1.44305c-0.3972 -0.39105 -0.40225 -1.03 -0.0111 -1.42705 0.38105 -0.387 0.9976 -0.40165 1.39645 -0.0402l0.03095 0.02925 0.7513 0.73935 2.28605 -2.2909c0.3937 -0.39455 1.0328 -0.3954 1.42745 -0.00185ZM10.34135 2.518205c-4.32025 0 -7.82261 3.501295 -7.82261 7.820645 0 4.3192 3.50236 7.8207 7.82261 7.8207s7.8226 -3.5015 7.8226 -7.8207c0 -4.31935 -3.50235 -7.820645 -7.8226 -7.820645Zm-0.81395 3.146345c1.6458 0.98875 3.26935 2.0115 4.8709 3.06805 1.3416 0.885 1.33825 2.49 -0.01835 3.377 -1.6301 1.06665 -3.28615 2.0894 -4.96775 3.0682 -1.36875 0.7967 -2.9008 -0.1194 -2.93795 -1.7155 -0.0239 -1.0286 -0.0044 -2.05825 -0.00575 -3.08755 -0.00115 -1.00135 -0.02085 -2.00325 0.0034 -3.00415 0.04085 -1.6978 1.60385 -2.582485 3.0555 -1.70605Zm-1.0849 1.6287v0.71025c-0.00015 0.3517 -0.00015 0.69865 -0.00035 1.04175l-0.00015 0.68115v1.00625c0.00015 0.7767 0.0005 1.5411 0.00185 2.3055 0.0007 0.35975 0.1879 0.34515 0.43015 0.1951 1.3963 -0.8655 2.7933 -1.72995 4.1909 -2.5936 0.231 -0.14245 0.23755 -0.2913 0.01095 -0.43425 -1.4969 -0.94335 -2.9958 -1.8835 -4.63335 -2.91215Z" stroke-width="0.5"></path>
  <path fill="#85b3df" d="M24.95955 41.60275c0.55735 0 1.0094 -0.45175 1.0094 -1.0091 0 -0.5572 -0.45205 -1.0091 -1.0094 -1.0091 -0.5573 0 -1.00935 0.4519 -1.00935 1.0091 0 0.55735 0.45205 1.0091 1.00935 1.0091Z" stroke-width="0.5"></path>
  <path fill="#85b3df" d="M21.09555 41.60275c0.55735 0 1.00935 -0.45175 1.00935 -1.0091 0 -0.5572 -0.452 -1.0091 -1.00935 -1.0091s-1.00935 0.4519 -1.00935 1.0091c0 0.55735 0.452 1.0091 1.00935 1.0091Z" stroke-width="0.5"></path>
  <path fill="#85b3df" d="M40.5941 45.4818c-2.6992 0 -4.8872 -2.1876 -4.8872 -4.88615 0 -2.69855 2.188 -4.88615 4.8872 -4.88615 2.69905 0 4.88735 2.1876 4.88735 4.88615 0 2.69855 -2.1883 4.88615 -4.88735 4.88615Zm0 -11.79055c-3.47105 0 -6.3432 2.56065 -6.83175 5.89525h-1.1295c-0.49305 0 -0.8931 0.45195 -0.8931 1.00915 0 0.55735 0.40005 1.0091 0.8931 1.0091h1.1295C34.2509 44.9394 37.12305 47.5 40.5941 47.5c3.8141 0 6.9061 -3.09125 6.9061 -6.90435 0 -3.81315 -3.092 -6.9044 -6.9061 -6.9044Z" stroke-width="0.5"></path>
</svg>