<svg xmlns="http://www.w3.org/2000/svg" fill="none" viewBox="0 0 48 48" id="google-analytics-svg" height="48" width="48">

  <path fill="#f9ab00" d="M45.22835 41.6187c0.0087 1.6746 -0.7016 3.27245 -1.9507 4.38785 -1.24905 1.1154 -2.9168 1.64105 -4.5797 1.4435 -2.99245 -0.44275 -5.18535 -3.04685 -5.11245 -6.071V6.61065c-0.07225 -3.027445 2.126 -5.632775 5.1224 -6.071015 1.66135 -0.1944485 3.3263 0.332615 4.5731 1.447655 1.24675 1.11504 1.95575 2.711065 1.94735 4.38371v35.2477Z" stroke-width="0.5"></path>
  <path fill="#e37400" d="M8.59285 35.85725c3.21505 0 5.82135 2.60635 5.82135 5.8214C14.4142 44.8937 11.8079 47.5 8.59285 47.5c-3.21505 0 -5.821365 -2.6063 -5.821365 -5.82135 0 -3.21505 2.606315 -5.8214 5.821365 -5.8214Zm15.3173 -17.6438c-3.2303 0.17705 -5.73655 2.88665 -5.6616 6.1209v15.6368c0 4.2437 1.8672 6.8199 4.60315 7.3691 1.7176 0.3481 3.5007 -0.09475 4.85585 -1.20595 1.35515 -1.11125 2.1387 -2.77305 2.1338 -4.52555v-17.544c0.00285 -1.56665 -0.6237 -3.0688 -1.739 -4.16905 -1.11525 -1.10025 -2.62575 -1.70635 -4.1922 -1.68225Z" stroke-width="0.5"></path>
</svg>