<svg xmlns="http://www.w3.org/2000/svg" fill="none" viewBox="0 0 48 48" id="gradle-svg" height="48" width="48">
  <path fill="#02303a" d="M44.9456 8.93155c-2.8395 -2.8408 -7.4196 -2.92 -10.35565 -0.17915 -0.1409 0.13295 -0.22295 0.31655 -0.22795 0.5102 0.00105 0.1928 0.07695 0.3777 0.2117 0.5156l0.9281 0.9607c0.25025 0.2492 0.64545 0.2769 0.9281 0.0651 0.73615 -0.5556 1.634 -0.85485 2.55635 -0.8521 1.7305 -0.00755 3.29415 1.03105 3.95815 2.62915 0.664 1.5981 0.29675 3.439 -0.92965 4.66C36.0988 23.157 28.2018 6.5814 10.2802 15.108c-0.61635 0.28815 -1.0842 0.82085 -1.2904 1.46925 -0.20615 0.6484 -0.13185 1.35345 0.2049 1.94465l3.07195 5.31355c0.667 1.15035 2.133 1.55365 3.2945 0.90635l0.076 -0.0434 -0.0597 0.0434 1.3623 -0.76525c1.51825 -0.94275 2.95275 -2.0141 4.2877 -3.2022 0.2826 -0.24245 0.6998 -0.24245 0.9824 0 0.1668 0.13085 0.26475 0.3307 0.26595 0.54275 0.0039 0.20605 -0.08115 0.4038 -0.2334 0.5427 -1.40605 1.2481 -2.9189 2.3705 -4.5211 3.3542h-0.0434l-1.3623 0.75985c-0.57585 0.32635 -1.2269 0.4966 -1.8888 0.4939 -1.39115 0.00015 -2.67805 -0.7373 -3.3813 -1.9376l-2.90375 -5.02045C2.56231 23.4501 -0.82445 31.04315 0.993765 40.67695c0.066635 0.3318 0.35633 0.5717 0.694715 0.5753h3.310775c0.356095 0 0.656345 -0.26535 0.700145 -0.6187 0.30525 -2.42345 2.36615 -4.2411 4.80875 -4.2411 2.4426 0 4.50355 1.81765 4.80875 4.2411 0.0464 0.3542 0.34835 0.6187 0.7056 0.6187h3.22395c0.35605 0 0.6563 -0.26535 0.70015 -0.6187 0.31505 -2.4169 2.3741 -4.225 4.81145 -4.225s4.49645 1.8081 4.81145 4.225c0.04385 0.35335 0.3441 0.6187 0.70015 0.6187h3.18595c0.3855 0 0.69965 -0.30925 0.7056 -0.6947 0.07595 -4.48855 1.2863 -9.64465 4.7382 -12.22815 11.9566 -8.9445 8.81425 -16.61355 6.0462 -19.39785ZM32.75005 22.4623l-2.27955 -1.1452c-0.0025 -0.67655 0.4685 -1.2626 1.12965 -1.40575 0.6612 -0.14315 1.3324 0.19565 1.60995 0.81265 0.2775 0.61695 0.0857 1.34395 -0.46005 1.7437v-0.0054Z" stroke-width="0.5"></path>
</svg>