<svg xmlns="http://www.w3.org/2000/svg" fill="none" viewBox="0 0 48 48" id="jenkins-svg" height="48" width="48">

  <path fill="#d33833" d="M37.83995 19.562c0 7.83515 -6.2122 14.19285 -13.87945 14.19285 -7.6673 0 -13.87945 -6.3577 -13.87945 -14.19285 0 -7.8352 6.21215 -14.19285 13.87945 -14.19285 7.66725 0 13.87945 6.35765 13.87945 14.19285Z" stroke-width="0.5"></path>
  <path fill="#ef3d3a" d="M10.6521 23.0766s-1.00735 -14.79725 12.637 -15.2226l-0.9514 -1.5894 -7.39865 2.48485 -2.1155 2.4289 -1.84685 3.53705 -1.05215 4.11905 0.3134 2.7535" stroke-width="0.5"></path>
  <path fill="#231f20" d="M14.45785 9.88005c-2.4289 2.49605 -3.94 5.9323 -3.94 9.73795 0 3.8057 1.5111 7.24195 3.94 9.738 2.4401 2.4961 5.78685 4.02955 9.50295 4.02955s7.06285 -1.53345 9.5029 -4.02955c2.42895 -2.49605 3.94 -5.9323 3.94 -9.738 0 -3.80565 -1.51105 -7.2419 -3.94 -9.73795 -2.44005 -2.4849 -5.7868 -4.02955 -9.5029 -4.02955 -3.70495 0 -7.06285 1.53345 -9.50295 4.02955Zm-0.61565 20.0692c-2.5856 -2.64155 -4.1862 -6.3017 -4.1862 -10.33125 0 -4.0295 1.6006 -7.68965 4.1862 -10.3424 2.58565 -2.64155 6.1674 -4.286955 10.1186 -4.286955 3.95115 0 7.53295 1.645405 10.11855 4.286955 2.5856 2.64155 4.1862 6.3017 4.1862 10.3424 0 4.02955 -1.6006 7.6897 -4.1862 10.33125 -2.5856 2.65275 -6.1674 4.28695 -10.11855 4.28695 -3.9512 0 -7.53295 -1.6342 -10.1186 -4.28695Z" stroke-width="0.5"></path>
  <path fill="#f0d6b7" d="m29.80375 19.6403 -2.1155 0.31345 -2.85425 0.3246 -1.84685 0.04475 -1.8021 -0.05595 -1.37675 -0.42535 -1.22005 -1.3208 -0.9514 -2.69755 -0.2127 -0.582 -1.2648 -0.42535 -0.73875 -1.22005 -0.52605 -1.74615 0.582 -1.53345 1.37675 -0.4813 1.10815 0.5261 0.52605 1.16405 0.638 -0.1007 0.2127 -0.26865 -0.2127 -1.22005 -0.05595 -1.53345 0.3134 -2.1155 -0.0112 -1.20885 0.96265 -1.54465 1.69015 -1.220045 2.95495 -1.26482 3.2796 0.4813 2.85425 2.05953 1.32075 2.115485 0.8507 1.53345 0.21265 3.80565 -0.638 3.2796 -1.1641 2.9102 -1.0969 1.55585" stroke-width="0.5"></path>
  <path fill="#335061" d="m28.01245 28.7852 -7.55535 0.3134v1.26485l0.638 4.44365 -0.3134 0.36935 -5.28315 -1.8021 -0.36935 -0.638 -0.5261 -5.9771 -1.2424 -3.5818 -0.26865 -0.85065 4.231 -2.9102 1.32075 -0.5261 1.1641 1.4327 1.0074 0.89545 1.16405 0.3694 0.5261 0.1567 0.638 2.7535 0.4813 0.58205 1.22005 -0.42535 -0.8507 1.6454 4.5892 2.17145 -0.57085 0.3134Z" stroke-width="0.5"></path>
  <path fill="#6d6b6d" d="m15.4766 10.33895 1.37675 -0.4813 1.1081 0.52605 0.5261 1.1641 0.638 -0.10075 0.1567 -0.638 -0.3134 -1.22005 0.3134 -2.9102 -0.26865 -1.5894L19.965 3.98127l2.05955 -1.63419 -0.58205 -0.79471 -2.9102 1.432715L17.31225 3.9365l-0.6828 1.4775 -1.05215 1.4327 -0.3134 1.69015 0.2127 1.8021Z" stroke-width="0.5"></path>
  <path fill="#dcd9d8" d="M17.6478 5.36925s0.7947 -1.958795 3.96235 -2.91021c3.16765 -0.951415 0.1567 -0.68278 0.1567 -0.68278l-3.4363 1.320785 -1.32075 1.320785L16.42775 5.47l1.22005 -0.10075Z" stroke-width="0.5"></path>
  <path fill="#dcd9d8" d="M16.05865 9.9695s-1.10815 -3.7049 3.12285 -4.23095l-0.1567 -0.63805 -2.9102 0.6828 -0.8507 2.7535 0.2127 1.8021 0.58205 -0.3694Z" stroke-width="0.5"></path>
  <path fill="#f7e4cd" d="m17.74855 14.8833 0.69395 -0.67155s0.3134 0.03355 0.3694 0.40295c0.05595 0.36935 0.21265 3.7049 2.48485 5.4958 0.21265 0.1679 -1.69015 -0.26865 -1.69015 -0.26865l-1.69015 -2.64155" stroke-width="0.5"></path>
  <path fill="#f7e4cd" d="M27.47555 13.8759s0.1231 -1.6006 0.55965 -1.4775c0.43655 0.12315 0.43655 0.55965 0.43655 0.55965s-1.05215 0.6716 -0.9962 0.91785Z" stroke-width="0.5"></path>
  <path fill="#f7e4cd" d="M31.86315 8.0108s-0.8731 0.1791 -0.95145 0.9514c-0.07835 0.77235 0.95145 0.1567 1.10815 0.10075" stroke-width="0.5"></path>
  <path fill="#f7e4cd" d="M25.4722 8.0667s-1.1641 0.1567 -1.1641 0.89545 1.3208 0.6828 1.69015 0.3694" stroke-width="0.5"></path>
  <path fill="#f7e4cd" d="M18.28615 11.50295s-2.0036 -1.22005 -2.21625 -0.056c-0.21265 1.1641 -0.6828 2.0036 0.3134 3.22365l-0.68275 -0.2127 -0.63805 -1.6342 -0.21265 -1.5894 1.22005 -1.2648 1.37675 0.1007 0.7947 0.63805 0.0448 0.7947Z" stroke-width="0.5"></path>
  <path fill="#f7e4cd" d="M19.23735 8.1675s0.89545 -4.656325 5.43985 -5.551775c3.7385 -0.738745 5.7085 0.156705 6.44725 1.00738 0 0 -3.33555 -3.9623565 -6.5032 -2.7535 -3.16765 1.220045 -5.4958 3.43628 -5.43985 4.857795 0.08955 2.4401 0.05595 2.4401 0.05595 2.4401Z" stroke-width="0.5"></path>
  <path fill="#f7e4cd" d="M31.49395 4.14912s-1.53345 -0.055965 -1.5894 1.32078c0 0 0 0.21265 0.10075 0.42535 0 0 1.22005 -1.37676 1.95875 -0.638" stroke-width="0.5"></path>
  <path fill="#f7e4cd" d="M24.789 6.0408s-0.2686 -2.104305 -2.0595 -0.88425c-1.1641 0.7947 -1.05215 1.9028 -0.8507 2.1155 0.2127 0.21265 0.1567 0.638 0.3134 0.347 0.1567 -0.29105 0.11195 -1.24245 0.694 -1.5111 0.57085 -0.26865 1.53345 -0.55965 1.9028 -0.06715Z" stroke-width="0.5"></path>
  <path fill="#49728b" d="m19.81935 20.32315 -4.9697 2.2162s2.0595 8.19335 1.00735 10.7342l-0.73875 -0.26865 -0.05595 -3.12285 -1.37675 -5.90995 -0.58205 -1.6342 5.1824 -3.49225 1.53345 1.4775Z" stroke-width="0.5"></path>
  <path fill="#49728b" d="m20.3227 24.8564 0.70515 0.86185v3.16765h-0.83945s-0.10075 -2.21625 -0.10075 -2.48485c0 -0.26865 0.10075 -1.22005 0.10075 -1.22005" stroke-width="0.5"></path>
  <path fill="#49728b" d="m20.3453 29.3672 -2.3841 0.1007 0.68275 0.48135 1.69015 0.2686" stroke-width="0.5"></path>
  <path fill="#335061" d="m28.4829 28.8411 1.9588 -0.05595 0.4813 4.8578 -2.00355 0.26865 -0.43655 -5.0705Z" stroke-width="0.5"></path>
  <path fill="#335061" d="m29.00905 28.8411 2.95495 -0.1567s1.22005 -3.0669 1.22005 -3.2236c0 -0.1567 1.05215 -4.44365 1.05215 -4.44365l-2.3841 -2.4849 -0.4813 -0.4253 -1.26485 1.2648v4.91375l-1.0969 4.5556Z" stroke-width="0.5"></path>
  <path fill="#49728b" d="m30.32975 28.4718 -1.84685 0.36935 0.26865 1.4775c0.68275 0.3134 1.84685 -0.52605 1.84685 -0.52605" stroke-width="0.5"></path>
  <path fill="#49728b" d="m30.38575 19.21505 3.7049 2.7535 0.10075 -1.26485 -2.7983 -2.5856 -1.00735 1.09695Z" stroke-width="0.5"></path>
  <path fill="#ffffff" d="m22.1812 39.25065 -1.0969 -4.44365 -0.54845 -3.27955 -0.08955 -2.4289 4.95855 -0.26865h3.0781l-0.27985 5.55175 0.4813 4.287 -0.05595 0.7947 -4.01835 0.3134 -2.4289 -0.5261Z" stroke-width="0.5"></path>
  <path fill="#dcd9d8" d="M27.80025 28.7852s-0.26865 5.4958 0.52605 9.4134c0 0 -1.5894 1.0074 -3.9064 1.2648l4.4437 -0.1567 0.52605 -0.3134 -0.638 -8.66345 -0.1679 -1.85805" stroke-width="0.5"></path>
  <path fill="#ffffff" d="m31.00105 33.22885 2.05955 -0.58205 3.9064 -0.21265 0.582 -1.8021 -1.05215 -3.12285 -1.22005 -0.1567 -1.69015 0.52605 -1.6118 0.7947 -0.86185 -0.1567 -0.6716 0.26865" stroke-width="0.5"></path>
  <path fill="#dcd9d8" d="M30.96755 32.1654s1.37675 -0.638 1.5894 -0.582l-0.58205 -2.9102 0.6828 -0.26865s0.4813 2.7535 0.4813 3.0669c0 0 2.95495 0.1567 3.2236 0.1567 0 0 0.638 -1.22005 0.4813 -2.48485l0.58205 1.69015 0.05595 0.9514 -0.85065 1.26485 -0.95145 0.21265 -1.5894 -0.05595 -0.52605 -0.6828 -1.8469 0.26865 -0.582 0.21265" stroke-width="0.5"></path>
  <path fill="#ffffff" d="m28.88585 28.4158 -1.1641 -2.955 -1.22005 -1.7461s0.26865 -0.73875 0.638 -0.73875h1.22005l1.1641 0.42535 -0.10075 1.9588 -0.53725 3.0557Z" stroke-width="0.5"></path>
  <path fill="#dcd9d8" d="M29.12065 27.40835s-1.4775 -2.8542 -1.4775 -3.27955c0 0 0.26865 -0.638 0.638 -0.4813s1.1641 0.58205 1.1641 0.58205v-1.0074l-1.8021 -0.36935 -1.22005 0.1567 2.05955 4.8802 0.4253 0.05595" stroke-width="0.5"></path>
  <path fill="#ffffff" d="m22.6514 20.43515 -1.4663 -0.1567 -1.37675 -0.42535v0.4813l0.6716 0.73875 2.1155 0.9514" stroke-width="0.5"></path>
  <path fill="#dcd9d8" d="M20.28955 20.5918s1.6342 0.6828 2.17145 0.52605l0.056 0.63805 -1.4775 -0.31345 -0.89545 -0.638 0.1455 -0.21265Z" stroke-width="0.5"></path>
  <path fill="#d33833" d="M31.00145 23.155c-0.89545 -0.02235 -1.7125 -0.1343 -2.4177 -0.3358 0.0448 -0.291 -0.04475 -0.5708 0.0336 -0.7835 0.20145 -0.1455 0.52605 -0.1455 0.8283 -0.1791 -0.25745 -0.1231 -0.62685 -0.17905 -0.91785 -0.1007 -0.0112 -0.2015 -0.10075 -0.3246 -0.1567 -0.48135 0.5037 -0.17905 1.69015 -1.35435 2.36175 -0.97375 0.3246 0.19025 0.4589 1.2424 0.4813 1.7685 0.0224 0.4253 -0.0448 0.85065 -0.2127 1.0857Z" stroke-width="0.5"></path>
  <path fill="#000000" stroke="#d33833" stroke-width="1" d="M31.00145 23.155c-0.89545 -0.02235 -1.7125 -0.1343 -2.4177 -0.3358 0.0448 -0.291 -0.04475 -0.5708 0.0336 -0.7835 0.20145 -0.1455 0.52605 -0.1455 0.8283 -0.1791 -0.25745 -0.1231 -0.62685 -0.17905 -0.91785 -0.1007 -0.0112 -0.2015 -0.10075 -0.3246 -0.1567 -0.48135 0.5037 -0.17905 1.69015 -1.35435 2.36175 -0.97375 0.3246 0.19025 0.4589 1.2424 0.4813 1.7685 0.0224 0.4253 -0.0448 0.85065 -0.2127 1.0857Z"></path>
  <path fill="#d33833" d="M26.71435 21.6887c0 0.06715 0 0.1343 -0.0112 0.2015 -0.27985 0.17905 -0.72755 0.17905 -1.04095 0.3358 0.4477 0.02235 0.8059 0.1343 1.1193 0.2798 -0.0112 0.1679 -0.0112 0.347 -0.0224 0.5149 -0.51485 0.34695 -0.985 0.87305 -1.5894 1.20885 -0.29105 0.1567 -1.2872 0.55965 -1.58945 0.4813 -0.1679 -0.0448 -0.19025 -0.25745 -0.2574 -0.4589 -0.14555 -0.42535 -0.4813 -1.11935 -0.5149 -1.76855 -0.0336 -0.8171 -0.12315 -2.19385 0.76115 -2.02595 0.71635 0.13435 1.54465 0.45895 2.0931 0.76115 0.34695 0.20145 0.53725 0.42535 1.05215 0.4701Z" stroke-width="0.5"></path>
  <path fill="#000000" stroke="#d33833" stroke-width="1" d="M26.71435 21.6887c0 0.06715 0 0.1343 -0.0112 0.2015 -0.27985 0.17905 -0.72755 0.17905 -1.04095 0.3358 0.4477 0.02235 0.8059 0.1343 1.1193 0.2798 -0.0112 0.1679 -0.0112 0.347 -0.0224 0.5149 -0.51485 0.34695 -0.985 0.87305 -1.5894 1.20885 -0.29105 0.1567 -1.2872 0.55965 -1.58945 0.4813 -0.1679 -0.0448 -0.19025 -0.25745 -0.2574 -0.4589 -0.14555 -0.42535 -0.4813 -1.11935 -0.5149 -1.76855 -0.0336 -0.8171 -0.12315 -2.19385 0.76115 -2.02595 0.71635 0.13435 1.54465 0.45895 2.0931 0.76115 0.34695 0.20145 0.53725 0.42535 1.05215 0.4701Z"></path>
  <path fill="#d33833" d="M27.218 22.66255c-0.07835 -0.44775 -0.1679 -0.57085 -0.13435 -0.96265 1.1977 -0.7947 1.41035 1.3656 0.13435 0.96265Z" stroke-width="0.5"></path>
  <path fill="#000000" stroke="#d33833" stroke-width="1" d="M27.218 22.66255c-0.07835 -0.44775 -0.1679 -0.57085 -0.13435 -0.96265 1.1977 -0.7947 1.41035 1.3656 0.13435 0.96265Z"></path>
  <path fill="#ef3d3a" d="M28.9414 23.02075s-0.36935 -0.52605 -0.1007 -0.68275c0.2686 -0.1567 0.52605 0 0.68275 -0.26865 0.1567 -0.26865 0 -0.42535 0.056 -0.73875 0.05595 -0.3134 0.3134 -0.36935 0.582 -0.42535 0.26865 -0.05595 1.0074 -0.1567 1.10815 0.10075l-0.3134 -0.9514 -0.63805 -0.2127 -2.00355 1.1641 -0.10075 0.58205v1.1641" stroke-width="0.5"></path>
  <path fill="#ef3d3a" d="M23.3901 24.76685c-0.06715 -0.8283 -0.1343 -1.6454 -0.20145 -2.4737 -0.11195 -1.23125 0.291 -1.01855 1.36555 -1.01855 0.1679 0 1.0074 0.19025 1.06335 0.3134 0.291 0.5932 -0.4813 0.4589 0.3358 0.90665 0.68275 0.36935 1.9028 -0.2239 1.623 -1.06335 -0.1567 -0.1903 -0.8059 -0.056 -1.04095 -0.1791 -0.41415 -0.21265 -0.8283 -0.42535 -1.24245 -0.638 -0.5261 -0.26865 -1.73495 -0.6716 -2.2946 -0.29105 -1.4215 0.96265 0.08955 3.38035 0.59325 4.3877" stroke-width="0.5"></path>
  <path fill="#231f20" d="M24.78915 6.0408c-1.4439 -0.3358 -2.16025 0.60445 -2.5968 1.57825 -0.39175 -0.08955 -0.23505 -0.6268 -0.1343 -0.89545 0.25745 -0.70515 1.2984 -1.6566 2.1491 -1.52225 0.35815 0.04475 0.85065 0.38055 0.582 0.83945Z" stroke-width="0.5"></path>
  <path fill="#231f20" d="M31.807 7.67495h0.06715c0.3246 0.67155 0.60445 1.3879 1.0186 1.99235 -0.27985 0.6492 -2.0819 1.20885 -2.05955 0.06715 0.39175 -0.1679 1.06335 -0.03355 1.41035 -0.25745 -0.2015 -0.54845 -0.4813 -1.01855 -0.43655 -1.80205Z" stroke-width="0.5"></path>
  <path fill="#231f20" d="M25.51665 7.6974c0.3134 0.57085 0.41415 1.16405 0.85065 1.5894 0.2015 0.1903 0.58205 0.42535 0.3918 0.9626 -0.0448 0.12315 -0.3694 0.40295 -0.5597 0.45895 -0.68275 0.20145 -2.28335 0.04475 -1.7461 -0.8171 0.57085 0.02235 1.332 0.36935 1.7573 -0.0448 -0.3246 -0.51485 -0.9066 -1.54465 -0.69395 -2.14905Z" stroke-width="0.5"></path>
  <path fill="#231f20" d="M31.5499 13.45065c-1.02975 0.6604 -2.18265 1.38795 -3.884 1.22005 -0.35815 -0.3134 -0.5037 -1.0186 -0.1455 -1.4775 0.1791 0.3134 0.06715 0.89545 0.58205 0.985 0.9626 0.1679 2.0819 -0.59325 2.7759 -0.8507 0.4253 -0.72755 -0.0336 -0.985 -0.42535 -1.4551 -0.7947 -0.9514 -1.84685 -2.13785 -1.8133 -3.5594 0.3246 -0.23505 0.347 0.3582 0.39175 0.4589 0.41415 0.96265 1.4551 2.20505 2.20505 3.03335 0.1903 0.2015 0.4925 0.40295 0.5261 0.53725 0.1007 0.3806 -0.25745 0.8507 -0.2127 1.10815Z" stroke-width="0.5"></path>
  <path fill="#231f20" d="M17.91635 12.7566c-0.3246 -0.1903 -0.40295 -0.9962 -0.78355 -1.0186 -0.54845 -0.0336 -0.4477 1.05215 -0.4477 1.69015 -0.3694 -0.3358 -0.43655 -1.38795 -0.1679 -1.9252 -0.3134 -0.1567 -0.44775 0.1679 -0.6268 0.27985 0.23505 -1.623 2.3841 -0.74995 2.02595 0.9738Z" stroke-width="0.5"></path>
  <path fill="#231f20" d="M32.19885 14.1334c-0.4813 0.91785 -1.1641 1.92525 -2.57445 1.9588 -0.03355 -0.291 -0.05595 -0.7499 0 -0.929 1.08575 -0.11195 1.75735 -0.6604 2.57445 -1.0298Z" stroke-width="0.5"></path>
  <path fill="#231f20" d="M25.438 14.72655c0.89545 0.4701 2.552 0.5261 3.78325 0.4925 0.06715 0.26865 0.06715 0.60445 0.06715 0.92905 -1.5782 0.06715 -3.43625 -0.3246 -3.8504 -1.42155Z" stroke-width="0.5"></path>
  <path fill="#231f20" d="M25.2704 15.59965c0.6268 1.56705 2.76465 1.38795 4.56675 1.3432 -0.07835 0.20145 -0.24625 0.4477 -0.4701 0.52605 -0.58205 0.23505 -2.17145 0.41415 -2.97735 -0.01115 -0.5037 -0.26865 -0.8395 -0.8843 -1.1193 -1.24245 -0.12315 -0.1679 -0.79475 -0.60445 0 -0.61565Z" stroke-width="0.5"></path>
  <path fill="#81b0c4" d="M31.4711 24.2295c-0.72755 1.25365 -1.4327 2.54085 -2.2946 3.63775 0.3582 -1.06335 0.5149 -2.85425 0.57085 -4.2198 0.76115 -0.35815 1.41035 0.07835 1.72375 0.58205Z" stroke-width="0.5"></path>
  <path fill="#231f20" d="M35.40015 28.7292c-0.8171 0.1679 -1.38795 0.9626 -2.19385 0.90665 0.4477 -0.61565 1.20885 -0.8843 2.19385 -0.90665Z" stroke-width="0.5"></path>
  <path fill="#231f20" d="M35.7583 30.00515c-0.6716 0.06715 -1.4551 0.1791 -2.1267 0.1231 0.3246 -0.4925 1.55585 -0.3134 2.1267 -0.1231Z" stroke-width="0.5"></path>
  <path fill="#231f20" d="M35.99345 31.11325c-0.7499 0.0112 -1.67895 0 -2.3953 -0.05595 0.42535 -0.4589 1.914 -0.1679 2.3953 0.05595Z" stroke-width="0.5"></path>
  <path fill="#dcd9d8" d="M30.06085 34.1355c0.11195 0.9402 0.4813 1.8916 0.43655 2.9214 -0.41415 0.1343 -0.6492 0.2574 -1.20885 0.2574 -0.0336 -0.87305 -0.1567 -2.2162 -0.12315 -3.0557 0.26865 0.0224 0.6716 -0.19025 0.89545 -0.1231Z" stroke-width="0.5"></path>
  <path fill="#f0d6b7" d="M28.85195 20.25605c-0.3806 0.24625 -0.694 0.54845 -1.06335 0.8171 -0.8059 0.04475 -1.24245 -0.056 -1.8245 -0.5149 0.0112 -0.03355 0.06715 -0.0224 0.06715 -0.06715 0.8619 0.38055 1.9588 -0.1567 2.8207 -0.23505Z" stroke-width="0.5"></path>
  <path fill="#81b0c4" d="M24.3528 26.11c0.23505 -1.01855 1.16405 -1.55585 2.00355 -2.1155 0.86185 1.09695 1.38795 2.50725 1.97 3.8728 -1.37675 -0.41415 -2.7759 -1.0745 -3.97355 -1.7573Z" stroke-width="0.5"></path>
  <path fill="#231f20" d="M29.1655 34.26975c-0.0336 0.8395 0.07835 2.17145 0.1231 3.05575 0.55965 0 0.79475 -0.12315 1.20885 -0.25745 0.0448 -1.0298 -0.3246 -1.9812 -0.4365 -2.9214 -0.22385 -0.07835 -0.6268 0.1343 -0.89545 0.1231Zm-8.6411 -4.74585c0.3694 3.3691 0.89545 6.18975 1.86925 9.17835 2.1603 0.66035 4.7571 0.71635 6.6711 0.1231 -0.347 -1.67895 -0.20145 -3.7273 -0.40295 -5.5294 -0.1567 -1.35435 -0.07835 -2.7087 -0.291 -4.08545 -2.317 -0.4813 -5.58535 -0.11195 -7.8464 0.3134Zm8.39485 -0.29105c-0.0224 1.44395 0.06715 2.87665 0.1791 4.32055 0.55965 -0.07835 0.929 -0.1343 1.4439 -0.25745 -0.1679 -1.38795 -0.1455 -2.96615 -0.4925 -4.1974 -0.39175 0.0112 -0.73875 0 -1.1305 0.1343Zm2.80945 -0.23505c-0.2686 -0.05595 -0.57085 0 -0.8171 0 0.12315 1.1753 0.40295 2.4737 0.5037 3.7161 0.39175 0.0112 0.60445 -0.17905 0.92905 -0.23505 0.02235 -1.0857 -0.08955 -2.5856 -0.61565 -3.48105Zm4.2646 3.8952c0.82825 -0.20145 1.34315 -1.20885 1.1081 -2.2498 -0.1567 -0.69395 -0.42535 -2.01475 -0.72755 -2.4625 -0.21265 -0.3246 -0.8059 -0.7611 -1.2872 -0.4589 -0.77235 0.4925 -2.1267 0.638 -2.68635 1.23125 0.27985 0.9402 0.36935 2.2162 0.4813 3.4027 0.9626 0.05595 2.1379 -0.26865 2.9438 0.07835 -0.55965 0.1791 -1.27605 0.1791 -1.75735 0.4477 0.40295 0.1903 1.3208 0.1567 1.92525 0.0112Zm-7.6785 -5.0257c-0.582 -1.36555 -1.1081 -2.7759 -1.96995 -3.8728 -0.8395 0.55965 -1.75735 1.0969 -2.0036 2.1155 1.20885 0.68275 2.608 1.34315 3.97355 1.7573Zm1.43275 -4.2198c-0.056 1.36555 -0.2127 3.15645 -0.57085 4.2198 0.86185 -1.1081 1.567 -2.3841 2.29455 -3.63775 -0.3134 -0.5037 -0.9626 -0.9402 -1.7237 -0.58205Zm-1.623 -0.57085c-0.3246 -0.03355 -0.60445 0.3806 -1.0298 0.2015 -0.1007 0.1119 -0.19025 0.22385 -0.291 0.3358 0.9402 1.1417 1.37675 2.7535 2.1043 4.08545 0.39175 -1.2872 0.347 -2.68635 0.43655 -4.08545 -0.5373 0.02235 -0.8395 -0.5037 -1.22005 -0.5373Zm-1.04095 -1.37675c-0.0336 0.39175 0.05595 0.5149 0.1343 0.9626 1.276 0.40295 1.06335 -1.7573 -0.1343 -0.9626Zm-1.42155 -0.4701c-0.54845 -0.3022 -1.37675 -0.6268 -2.0931 -0.76115 -0.88425 -0.16785 -0.7947 1.2089 -0.76115 2.02595 0.0336 0.6492 0.3694 1.332 0.5149 1.76855 0.06715 0.20145 0.08955 0.41415 0.25745 0.4589 0.3022 0.06715 1.3096 -0.3246 1.5894 -0.4813 0.60445 -0.3246 1.07455 -0.8507 1.58945 -1.20885 0.01115 -0.1679 0.01115 -0.347 0.02235 -0.5149 -0.3134 -0.1567 -0.6604 -0.25745 -1.1193 -0.2798 0.3022 -0.1567 0.76115 -0.1567 1.04095 -0.3358 0 -0.06715 0 -0.13435 0.0112 -0.2015 -0.5149 -0.05595 -0.70515 -0.2798 -1.05215 -0.4701Zm-5.26075 -0.9514c-0.4589 0.4701 1.2872 1.0969 1.83565 1.1305 0 -0.29105 0.1679 -0.57085 0.13435 -0.7835 -0.6604 -0.11195 -1.5223 -0.0336 -1.97 -0.347Zm5.6413 0.21265c0 0.0448 -0.05595 0.0336 -0.06715 0.06715 0.59325 0.45895 1.0298 0.55965 1.8245 0.5149 0.35815 -0.25745 0.68275 -0.57085 1.06335 -0.8171 -0.8731 0.07835 -1.97 0.61565 -2.8207 0.23505Zm5.17125 1.56705c-0.0224 -0.5149 -0.1567 -1.57825 -0.4813 -1.7685 -0.6716 -0.39175 -1.8581 0.7947 -2.36175 0.9738 0.05595 0.1567 0.1455 0.2798 0.1567 0.4813 0.3022 -0.07835 0.6604 -0.0224 0.9178 0.1007 -0.3022 0.0336 -0.6268 0.0336 -0.82825 0.1791 -0.0672 0.2127 0.02235 0.4925 -0.0336 0.78355 0.70515 0.20145 1.52225 0.3022 2.4177 0.33575 0.1679 -0.22385 0.23505 -0.6492 0.2127 -1.0857Zm-11.58485 -1.332c-0.14555 -0.1007 -1.11935 -1.36555 -1.25365 -1.3096 -1.7573 0.694 -3.4027 1.89165 -4.869 3.03335 1.39915 3.01095 1.97 6.69345 2.0707 10.2417 1.60065 0.7499 3.01095 1.83565 5.1936 1.9476 -0.2574 -1.7797 -0.4813 -3.38035 -0.6268 -5.0593 -0.54845 -0.23505 -1.33195 0.0112 -1.84685 -0.06715 0 -0.6156 0.7835 -0.26865 0.85065 -0.6828 0.0448 -0.3134 -0.4365 -0.3358 -0.2798 -0.82825 0.40295 0.1455 0.6156 0.4701 1.04095 0.5932 0.39175 -0.85065 0 -2.36175 0.05595 -3.0781 0.0112 -0.1343 0.0672 -0.73875 0.3694 -0.638 0.26865 0.08955 -0.0112 1.623 0.0112 2.2946 0.02235 0.6268 -0.07835 1.22005 0.17905 1.6118 2.10435 -0.29105 4.2422 -0.4701 6.5256 -0.53725 -0.5037 -0.2127 -1.0969 -0.41415 -1.7461 -0.78355 -0.3582 -0.20145 -1.4663 -0.6156 -1.56705 -0.9514 -0.1679 -0.53725 0.42535 -0.8171 0.52605 -1.276 -1.06335 0.58205 -1.2648 -0.55965 -1.52225 -1.3544 -0.22385 -0.72755 -0.35815 -1.276 -0.41415 -1.69015 -0.929 -0.4701 -1.914 -0.90665 -2.6975 -1.4663Zm10.6558 -1.16405c1.4663 -0.7052 1.73495 2.65275 1.1529 3.7385 0.08955 0.3246 0.39175 0.4477 0.5149 0.7387 -0.8171 1.4663 -1.72375 2.8319 -2.56325 4.2758 0.61565 -0.39175 1.51105 -0.06715 2.23865 -0.3582 0.2686 -0.10075 0.4589 -0.71635 0.66035 -1.20885 0.55965 -1.34315 1.1417 -3.0445 1.39915 -4.32055 0.05595 -0.291 0.22385 -0.929 0.1791 -1.18645 -0.06715 -0.4701 -0.694 -0.8171 -1.0186 -1.09695 -0.5932 -0.53725 -0.9626 -0.99615 -1.5894 -1.49985 -0.23505 0.36935 -0.7723 0.6156 -0.9738 0.91785ZM16.28225 6.56685c-0.694 0.7723 -0.54845 2.20505 -0.4701 3.2348 1.2648 -0.7947 2.93255 0.06715 2.9214 1.41035 0.6044 -0.0112 0.22385 -0.74995 0.1119 -1.23125 -0.35815 -1.55585 0.60445 -3.2348 0.0448 -4.65635 -1.08575 0.08955 -1.97 0.5261 -2.608 1.24245Zm4.9921 -4.46605c-1.5782 0.447725 -3.60415 1.600615 -4.25335 3.02215 0.50365 -0.07835 0.85065 -0.32461 1.34315 -0.35819 0.1903 -0.011195 0.43655 0.07835 0.6492 0.022385 0.42535 -0.11193 0.7947 -1.074535 1.1193 -1.432715 0.3134 -0.346985 0.694 -0.50369 0.95145 -0.817095 0.1679 -0.078355 0.4141 -0.078355 0.4253 -0.3246 -0.06715 -0.078355 -0.1455 -0.13432 -0.23505 -0.111935Zm8.22695 0.42534c-1.6454 -0.929025 -4.4213 -1.623 -6.1674 -0.749935 -1.41035 0.705165 -3.31315 1.869245 -3.96235 3.335545 0.6044 1.4215 -0.1791 2.7199 -0.23505 4.16385 -0.0224 0.7723 0.35815 1.4327 0.39175 2.2722 -0.2127 0.34695 -0.8395 0.38055 -1.27605 0.35815 -0.1455 -0.73875 -0.40295 -1.56705 -1.16405 -1.65655 -1.07455 -0.12315 -1.86925 0.7723 -1.91405 1.70135 -0.05595 1.0969 0.8395 2.9102 2.1155 2.78705 0.4925 -0.04475 0.61565 -0.53725 1.1529 -0.53725 0.29105 0.58205 -0.4477 0.7611 -0.52605 1.17525 -0.0224 0.11195 0.05595 0.5261 0.1119 0.72755 0.23505 0.95145 0.74995 2.19385 1.25365 2.9214 0.6492 0.92905 1.914 1.06335 3.27955 1.1529 0.24625 -0.52605 1.1417 -0.4813 1.72375 -0.347 -0.70515 -0.2798 -1.35435 -0.9514 -1.89165 -1.54465 -0.6156 -0.68275 -1.2424 -1.4103 -1.276 -2.30575 1.1753 1.623 2.1379 3.0445 4.2646 3.76085 1.6118 0.5373 3.4922 -0.2462 4.73465 -1.1193 0.5149 -0.35815 0.8171 -0.9402 1.1865 -1.4551 1.36555 -1.96995 2.00355 -4.76825 1.8692 -7.48815 -0.05595 -1.11935 -0.05595 -2.23865 -0.4365 -2.9886 -0.39175 -0.7835 -1.72375 -1.49985 -2.50725 -0.7835 -0.1455 -0.7723 0.6492 -1.24243 1.5782 -0.9626 -0.6604 -0.86187 -1.35435 -1.88044 -2.30575 -2.41771Zm3.0669 25.30761c1.2872 -0.63805 3.68255 -1.71255 4.47725 0 0.3022 0.638 0.6492 1.70135 0.7947 2.3617 0.21265 0.91785 -0.23505 2.86545 -1.18645 3.16765 -0.8395 0.26865 -1.8133 0.25745 -2.8207 0.056 -0.1231 -0.10075 -0.24625 -0.26865 -0.34695 -0.44775 -0.7164 -0.02235 -1.39915 0.0336 -1.9588 0.3358 0.05595 0.53725 -0.30225 0.61565 -0.6492 0.72755 -0.24625 0.9962 0.5037 2.2946 0.3246 3.19005 -0.12315 0.6492 -0.91785 0.74995 -1.4999 0.86185 -0.02235 0.3582 0.0224 0.6604 0.06715 0.9626 -0.1343 0.4925 -0.72755 0.77235 -1.2984 0.8395 -1.8692 0.22385 -4.7011 0.3246 -6.49195 -0.3246 -0.5037 -1.23125 -0.89545 -2.71995 -1.3096 -4.11905 -1.74615 0.19025 -3.16765 -0.74995 -4.49965 -1.37675 -0.4589 -0.2127 -1.0969 -0.3358 -1.276 -0.7052 -0.1679 -0.35815 -0.10075 -1.04095 -0.1455 -1.67895 -0.10075 -1.6454 -0.2015 -3.2348 -0.62685 -4.91375 -0.19025 -0.76115 -0.53725 -1.42155 -0.7723 -2.1491 -0.22385 -0.67155 -0.60445 -1.51105 -0.70515 -2.18265 -0.14555 -0.9962 0.7947 -1.05215 1.38795 -1.48865 0.929 -0.6716 1.65655 -1.041 2.66395 -1.6454 0.3022 -0.1791 1.19765 -0.6268 1.2984 -0.8395 0.20145 -0.41415 -0.347 -0.9962 -0.4925 -1.3208 -0.23505 -0.51485 -0.3582 -0.9514 -0.39175 -1.4551 -0.8395 -0.1343 -1.4887 -0.638 -1.86925 -1.19765 -0.63805 -0.9402 -1.08575 -2.67515 -0.5261 -3.98475 0.0448 -0.1007 0.25745 -0.3134 0.29105 -0.4701 0.06715 -0.3134 -0.12315 -0.72755 -0.13435 -1.06335 -0.05595 -1.71255 0.29105 -3.19 1.4439 -3.7049 0.47015 -1.86925 2.1491 -2.48487 3.7273 -3.413895 0.59325 -0.346985 1.24245 -0.57085 1.91405 -0.817095C24.36365 0.1532035 28.06855 0.3211 30.07215 1.83217c0.85065 0.638005 2.20505 1.99237 2.68635 2.97736 1.2872 2.58562 1.18645 6.91732 0.291 10.07377 -0.1231 0.42535 -0.291 1.041 -0.53725 1.55585 -0.1679 0.3582 -0.694 1.06335 -0.63805 1.37675 0.0672 0.3246 1.2089 1.1865 1.45515 1.42155 0.4365 0.4253 1.276 0.985 1.34315 1.52225 0.07835 0.57085 -0.24625 1.35435 -0.41415 1.9028 -0.53725 1.8357 -1.07455 3.52585 -1.69015 5.17125Z" stroke-width="0.5"></path>
  <path fill="#f7e4cd" d="M24.0053 15.11835c0.06715 -0.08955 0.44775 -0.23505 0.985 0.0224 0 0 -0.638 0.10075 -0.58205 1.16405l-0.2686 -0.05595c0.01115 0.0112 -0.26865 -0.9514 -0.13435 -1.1305Z" stroke-width="0.5"></path>
  <path fill="#1d1919" d="M28.6394 24.2072c0 0.1567 -0.1343 0.29105 -0.291 0.29105 -0.1567 0 -0.29105 -0.13435 -0.29105 -0.29105 0 -0.1567 0.13435 -0.291 0.29105 -0.291 0.1679 0 0.291 0.1343 0.291 0.291Z" stroke-width="0.5"></path>
  <path fill="#1d1919" d="M28.9302 25.5616c0 0.1567 -0.13435 0.291 -0.29105 0.291 -0.1567 0 -0.291 -0.1343 -0.291 -0.291 0 -0.1567 0.1343 -0.29105 0.291 -0.29105 0.1679 0 0.29105 0.12315 0.29105 0.29105Z" stroke-width="0.5"></path>
</svg>