<?xml version="1.0"?>
<svg width="40" height="40" xmlns="http://www.w3.org/2000/svg" xmlns:svg="http://www.w3.org/2000/svg">
 <g class="layer">
  <title>Layer 1</title>
  <ellipse cx="19.88" cy="20.19" fill="#ffffff" id="svg_4" rx="14.25" ry="14.25" stroke="null" stroke-dasharray="null" stroke-linecap="null" stroke-linejoin="null" stroke-opacity="null" stroke-width="null"/>
  <path d="m29.63,3.93l-0.16,-0.28l-19.07,0l-0.22,0.37l-9.21,15.8l-0.1,0.18l0.1,0.18l9.22,15.8l0.21,0.36l19.07,0l0.15,-0.26l9.38,-16.08l-9.37,-16.07zm-2.57,22.67c-1.87,2.08 -4.46,3.14 -7.06,3.14c-2.27,0 -4.54,-0.81 -6.35,-2.44c-3.89,-3.5 -4.21,-9.52 -0.7,-13.41c0.27,-0.3 0.56,-0.59 0.86,-0.85c0.63,-0.54 1.58,-0.46 2.12,0.16c0.54,0.63 0.47,1.58 -0.16,2.12c-0.21,0.18 -0.41,0.37 -0.6,0.58c-2.39,2.66 -2.17,6.78 0.49,9.17c2.66,2.4 6.78,2.18 9.17,-0.48c2.4,-2.66 2.18,-6.78 -0.48,-9.17c-0.62,-0.56 -0.67,-1.51 -0.11,-2.12c0.55,-0.62 1.5,-0.67 2.12,-0.11c3.89,3.5 4.2,9.52 0.7,13.41zm-5.56,-15.1l0,7c0,0.83 -0.67,1.5 -1.5,1.5c-0.82,0 -1.5,-0.67 -1.5,-1.5l0,-7c0,-0.83 0.68,-1.5 1.5,-1.5c0.83,0 1.5,0.67 1.5,1.5z" fill="#bae0bd" id="svg_2"/>
  <path d="m38.1,16.7l-6.2,-10.5c-0.56,-0.95 -1.35,-1.73 -2.27,-2.27c-0.16,-0.11 -0.33,-0.2 -0.5,-0.28c-0.87,-0.42 -1.84,-0.65 -2.83,-0.65l-12.63,0c-1,0 -1.96,0.23 -2.83,0.65c-0.23,0.11 -0.45,0.23 -0.66,0.37c-0.85,0.54 -1.58,1.28 -2.11,2.18l-6.2,10.5c-0.57,0.97 -0.87,2.04 -0.9,3.12l0,0.36c0.03,1.08 0.33,2.15 0.9,3.12l6.2,10.5c0.53,0.9 1.26,1.64 2.12,2.18c0.2,0.14 0.41,0.25 0.63,0.36c0.88,0.43 1.84,0.66 2.85,0.66l12.63,0c1,0 1.97,-0.23 2.85,-0.66c0.16,-0.08 0.32,-0.16 0.47,-0.26c0.93,-0.55 1.72,-1.32 2.28,-2.28l6.2,-10.5c0.6,-1.02 0.9,-2.16 0.9,-3.3s-0.3,-2.28 -0.9,-3.3zm-11.8,19.3l-12.63,0c-1.94,0 -3.75,-1.04 -4.74,-2.7l-6.2,-10.5c-1.02,-1.73 -1.02,-3.87 0,-5.6l6.2,-10.5c0.99,-1.66 2.8,-2.7 4.74,-2.7l12.63,0c1.94,0 3.75,1.04 4.74,2.7l6.2,10.5c1.01,1.73 1.01,3.87 0,5.6l-6.2,10.5c-0.99,1.66 -2.8,2.7 -4.74,2.7z" fill="#5e9c76" id="svg_3"/>
 </g>

</svg>