<?xml version="1.0"?>
<svg width="177.33" height="177.33" xmlns="http://www.w3.org/2000/svg" xmlns:svg="http://www.w3.org/2000/svg">

 <g class="layer">
  <title>Layer 1</title>
  <g id="svg_15" transform="translate(0.005) translate(0, 1.035) translate(-0.505) translate(0, -1) translate(1) translate(-1) translate(0, 1) translate(0, 1) translate(0, 1) translate(-1) translate(-1) translate(-76, -2) translate(-1) matrix(0.430594, -0.430594, 0.430594, 0.430594, 56.8498, 120.559)">
   <g fill="#0d2c40" id="svg_1" transform="translate(2, -75) matrix(1.15024, 0, 0, 1.15024, -0.133613, 0.395475)">
    <path d="m93.09,176.17l20.91,1.54l0,17.86s-39.07,38.48 -96,-7.08l19.4,0l2.15,-17.55s22.14,22.47 53.54,5.23z" fill="#007f7f" id="svg_2"/>
    <path d="m22.28,93.66s-42.49,39.56 -7.7,90.21l19.42,1.85l1.85,-18.78s-17.85,-29.25 5.21,-52.34l-20.68,-1.6l1.9,-19.34z" fill="#007f7f" id="svg_3"/>
    <path d="m26.9,90.89s53,-34.17 93.29,7.08l-17.86,-1.23l-1.85,20s-20.32,-24.62 -54.18,-5.53l-20.63,-0.92l1.23,-19.4z" fill="#007f7f" id="svg_4"/>
    <path d="m105.1,121.68l1.23,-20.63l18.78,1.85l56.65,63.11l-19.39,0l-1.85,17.55l-55.42,-61.88z" fill="#007f7f" id="svg_5"/>
   </g>
   <path d="m114.97,124.15l82.51,-91.02l21.96,2.13l-1.41,22.31l-81.09,90.29l0.35,-23.37l-22.3,-0.35z" fill="#ff7f00" id="svg_7"/>
   <path d="m200.66,29.85l22.84,1.86l-1.59,21.79s33.73,-21.52 58.43,1.32l24.16,1.06l2.17,-21.21s-37.75,-42.56 -106.02,-4.82z" fill="#ff7f00" id="svg_8"/>
   <path d="m283.8,58.27l24.16,1.41l1.86,-21.34s52.85,58.88 -4.26,109.51l-23.36,-1.62l2.13,-24.16s31.61,-35.39 -0.53,-63.82z" fill="#ff7f00" id="svg_9"/>
   <path d="m216.6,122.02l-24.4,-2.13l-1.37,21.52s43.3,49.93 108.63,10.09l-22.31,-1.81l2.13,-23.11s-28.42,22.79 -62.68,-4.57z" fill="#ff7f00" id="svg_10"/>
   <path d="m247.48,84.82l0,8.05a4.34,4.34 0 0 0 -0.1,0.95a4.44,4.44 0 0 0 0.1,0.97l0,12.97l-6.03,0l0,-23l6.03,0.06z" fill="#007f7f" id="svg_11"/>
   <path d="m252.78,84.82a9.57,9.57 0 0 0 -5.3,2.5a9.2,9.2 0 0 0 -3.53,6.52a9.81,9.81 0 0 0 3.53,6.9a7.81,7.81 0 0 0 4.7,2.13c5.6,0.14 8.36,-4.68 8.36,-9.02s-3.43,-9.28 -7.76,-9.03zm-1.83,13.01a3.67,3.67 0 0 1 -3.45,-3.03a4.44,4.44 0 0 1 -0.1,-0.97a4.34,4.34 0 0 1 0.1,-0.95a3.67,3.67 0 0 1 3.45,-3.03a4,4 0 0 1 0,7.97zm21.58,-6.14c-0.87,-0.28 -4.11,-0.78 -4.11,-2c0,-0.69 0.99,-0.77 1.47,-0.75c1.38,0 3.45,1.64 4.6,1.33c1.02,-0.26 1.92,-2.91 2.3,-3.81a14.69,14.69 0 0 0 -9.59,-1.75a5.75,5.75 0 0 0 -4.34,7.59c1.46,3.78 5.95,2.3 8.21,4.6c0.93,0.97 -0.99,1.4 -1.62,1.38a13.63,13.63 0 0 1 -5.45,-2.07c-0.56,0.81 -2.3,2.73 -2.09,3.73s2.5,1.75 3.45,2.05c3.2,1.04 8.13,1.43 10.54,-1.48c3,-3.5 0.38,-7.6 -3.37,-8.82zm-46.8,-13.24a12.65,12.65 0 1 0 12.65,12.65a12.65,12.65 0 0 0 -12.65,-12.65zm0,19.11a6.49,6.49 0 1 1 6.5,-6.49a6.49,6.49 0 0 1 -6.51,6.49l0.01,0z" fill="#007f7f" id="svg_12"/>
   <path d="m105.89,84.53l-7.21,0l7.63,19.95l3.29,0l0,-8.5l-3.7,-11.44zm7.42,0.03l7.21,0l-7.64,19.95l-3.29,0l0,-8.5l3.72,-11.44zm-42.43,-2.84a17.36,17.36 0 0 0 -8.17,-3.01c-3.89,-0.37 -8.05,0.1 -11.65,0.1l0,25.64l0.17,0c0.69,0.08 1.38,0.15 2.08,0.2a45.7,45.7 0 0 0 8.3,-0.07c5.28,-0.59 8.67,-2.3 10.75,-4.53a11.63,11.63 0 0 0 2.93,-7.52l0,-0.61l0,-0.32c-0.05,-3.65 -1.09,-7.32 -4.43,-9.87zm-5.87,15.67c-2.17,1.22 -4.82,0.92 -7.21,0.92l0,-13.35c2.54,0 5.41,-0.33 7.64,1.23c3.7,2.61 3.57,8.95 -0.46,11.2l0.03,0zm30.5,2c-0.59,-0.49 -1.33,-1.33 -2.13,-1.47c-1.27,-0.17 -2.84,1.53 -4.24,1.67c-2.19,0.22 -3.76,-1.29 -4.6,-3.11l13.3,0c0,-3.68 -0.31,-7.56 -3.45,-10.09c-5.83,-4.76 -15.4,-1.24 -16.47,6.27c-1.15,7.91 5.07,13.02 12.65,12.03a9.94,9.94 0 0 0 5.08,-2.3c0.52,-0.46 1.28,-1.09 0.9,-1.84a4.28,4.28 0 0 0 -1.04,-1.16zm-4.24,-6.52l-6.79,0a3.45,3.45 0 0 1 6.79,0z" fill="#ff7f00" id="svg_13"/>
  </g>
 </g>
</svg>