<svg width="500" height="500" xmlns="http://www.w3.org/2000/svg" preserveAspectRatio="xMidYMid meet" xml:space="preserve" version="1.1">
 <defs>
  <linearGradient y2="0%" x2="100%" y1="100%" x1="0%" id="my45DegreeGradient">
   <stop stop-color="#A74BF5" offset="0%"/>
   <stop stop-color="#4E0C8F" offset="85%"/>
  </linearGradient>
  <mask id="mask">
    <g stroke-width="0" transform="translate(0 500) scale(0.1 -0.1)">
        <path fill="#fff" d="m2757.46505,4068.82791l5.0268,-580.56215l100.53597,-9.73009c397.11707,-38.92037 723.85896,-296.7678 856.23132,-674.6197c36.86319,-105.40933 45.24118,-155.68147 45.24118,-296.7678c0,-147.57306 -6.7024,-189.73679 -50.26798,-308.11958c-135.72355,-379.47358 -452.41185,-621.1042 -879.68971,-672.99802l-80.42877,-9.73009l0,-575.6971l0,-574.07542l123.99436,0l123.99436,0l51.94358,137.84297c28.48519,76.21905 55.29478,154.05979 60.32158,175.14165c8.378,30.81196 41.88999,47.02878 199.39633,97.30092c102.21157,32.43364 197.72073,60.00223 211.12553,60.00223c11.7292,0 88.80677,-43.78541 169.23554,-97.30092c80.42877,-53.51551 152.47955,-97.30092 157.50635,-97.30092c8.378,0 336.79549,227.03548 392.09027,270.82089c5.0268,3.24336 -16.75599,85.94915 -45.24118,184.87175l-55.29478,178.38502l120.64316,157.30315c65.34838,85.94915 135.72355,162.1682 154.15515,168.65493c20.10719,4.86505 110.58956,9.73009 199.39633,11.35177l162.53315,1.62168l75.40197,230.27884c41.88999,126.49119 70.37518,235.14389 63.67278,241.63062c-6.7024,4.86505 -73.72638,55.13719 -149.12835,110.27437l-139.07475,100.54428l0,207.57529l0,209.19698l152.47955,108.65269c82.10437,60.00223 147.45275,118.38278 142.42595,129.73456c-3.3512,9.73009 -38.53879,115.13942 -75.40197,231.90052l-70.37518,214.06202l-191.01834,0l-191.01834,0l-125.66996,168.65493l-127.34556,167.03324l50.26798,160.54652c26.80959,89.19251 50.26798,171.89829 50.26798,184.87175c-1.6756,19.46018 -336.79549,270.82089 -385.38787,288.65939c-8.378,3.24336 -85.45557,-40.54205 -170.91114,-98.9226l-155.83075,-103.78765l-202.74753,64.86728l-202.74753,63.2456l-30.16079,92.43587c-15.08039,50.27214 -43.56559,129.73456 -61.99718,176.76334l-31.83639,84.32746l-125.66996,0l-123.99436,0l3.3512,-578.94047z"/>
        <path fill="#fff" d="m1639.84023,4587.76614c-113.94076,-58.38055 -175.93794,-154.05979 -175.93794,-272.44257c0,-97.30092 31.83639,-167.03324 105.56276,-230.27884c150.80395,-128.11288 375.33428,-97.30092 480.89704,66.48896l36.86319,58.38055l224.53033,0l224.53033,0l0,105.40933l0,105.40933l-224.53033,0l-224.53033,0l-36.86319,56.75887c-53.61918,84.32746 -159.18195,137.84297 -269.77151,137.84297c-50.26798,-1.62168 -112.26516,-12.97346 -140.75035,-27.56859zm221.17913,-225.4138c25.13399,-38.92037 25.13399,-47.02878 3.3512,-85.94915c-46.91678,-81.0841 -182.64034,-55.13719 -182.64034,34.05532c0,92.43587 127.34556,128.11288 179.28914,51.89382z"/>
        <path fill="#fff" d="m902.57647,3926.11989c-8.378,-3.24336 -36.86319,-9.73009 -61.99718,-14.59514c-110.58956,-24.32523 -214.47673,-165.41156 -214.47673,-293.52444c0,-128.11288 95.50917,-256.22575 216.15233,-291.90276c130.69676,-38.92037 291.5543,14.59514 363.60508,121.62615l45.24118,64.86728l532.84062,0l534.51622,0l0,-251.36071l0,-251.36071l309.9859,0l309.9859,0l0,105.40933l0,105.40933l-192.69394,0l-192.69394,0l0,251.36071l0,251.36071l-653.48378,0l-651.80818,0l-26.80959,47.02878c-50.26798,97.30092 -229.55712,184.87175 -318.36389,155.68147zm120.64316,-261.0908c25.13399,-38.92037 25.13399,-47.02878 3.3512,-85.94915c-45.24118,-77.84074 -182.64034,-51.89382 -182.64034,35.677c0,90.81419 127.34556,124.86951 179.28914,50.27214z"/>
        <path fill="#fff" d="m1480.65828,3082.84526l0,-121.62615l-393.76587,0l-392.09027,0l-26.80959,50.27214c-15.08039,25.94691 -61.99718,69.73233 -105.56276,97.30092c-194.36954,118.38278 -452.41185,4.86505 -482.57264,-215.6837c-33.51199,-231.90052 206.09873,-416.77227 425.60226,-329.20144c73.72638,30.81196 132.37236,81.0841 164.20875,142.70801l25.13399,43.78541l501.00423,0l502.67983,0l0,227.03548l0,227.03548l-108.91396,0l-108.91396,0l0,-121.62615zm-1018.76446,-165.41156c90.48237,-79.46242 -28.48519,-207.57529 -125.66996,-132.97792c-53.61918,38.92037 -56.97038,84.32746 -11.7292,128.11288c40.21439,38.92037 95.50917,42.16373 137.39915,4.86505z"/>
        <path fill="#fff" d="m1958.20412,2784.45578c-154.15515,-68.11064 -226.20592,-225.4138 -174.26234,-376.23022c25.13399,-69.73233 108.91396,-157.30315 177.61354,-186.49343c130.69676,-55.13719 308.3103,-3.24336 385.38787,108.65269l43.56559,63.2456l440.68265,0l442.35825,0l0,113.51774l0,113.51774l-437.33145,0l-437.33145,0l-72.05078,77.84074c-107.23836,115.13942 -236.25952,145.95138 -368.63188,85.94915zm192.69394,-212.44034c18.43159,-17.8385 33.51199,-47.02878 33.51199,-64.86728c0,-17.8385 -15.08039,-47.02878 -33.51199,-64.86728c-18.43159,-17.8385 -48.59238,-32.43364 -67.02398,-32.43364c-18.43159,0 -48.59238,14.59514 -67.02398,32.43364c-18.43159,17.8385 -33.51199,47.02878 -33.51199,64.86728c0,17.8385 15.08039,47.02878 33.51199,64.86728c18.43159,17.8385 48.59238,32.43364 67.02398,32.43364c18.43159,0 48.59238,-14.59514 67.02398,-32.43364z"/>
        <path fill="#fff" d="m1162.29439,2166.59494l0,-178.38502l-132.37236,0l-130.69676,0l-45.24118,64.86728c-155.83075,228.65716 -534.51622,141.08633 -573.05501,-134.5996c-46.91678,-324.3364 393.76587,-476.7745 578.08181,-201.08857l40.21439,60.00223l241.28632,0l239.61072,0l0,178.38502l0,178.38502l125.66996,0l125.66996,0l0,105.40933l0,105.40933l-234.58392,0l-234.58392,0l0,-178.38502zm-499.32863,-222.17043c55.29478,-48.65046 30.16079,-136.22129 -46.91678,-157.30315c-41.88999,-12.97346 -123.99436,43.78541 -123.99436,85.94915c0,82.70578 105.56276,128.11288 170.91114,71.35401z"/>
        <path fill="#fff" d="m2346.94319,2090.37589c-6.7024,-4.86505 -11.7292,-136.22129 -11.7292,-291.90276l0,-280.55098l-88.80677,0c-85.45557,0 -92.15797,3.24336 -130.69676,60.00223c-216.15233,322.71471 -717.15656,51.89382 -551.27222,-298.38948c95.50917,-205.95361 428.95346,-223.79211 552.94782,-29.19028l35.18759,55.13719l204.42313,4.86505l204.42313,4.86505l5.0268,280.55098l3.3512,278.9293l184.31594,0l184.31594,0l0,113.51774l0,113.51774l-289.8787,0c-160.85755,0 -296.5811,-4.86505 -301.6079,-11.35177zm-440.68265,-606.50906c50.26798,-37.29869 55.29478,-72.97569 16.75599,-124.86951c-46.91678,-66.48896 -174.26234,-29.19028 -174.26234,51.89382c0,42.16373 15.08039,63.2456 58.64598,87.57083c45.24118,24.32523 46.91678,24.32523 98.86037,-14.59514z"/>
        <path fill="#fff" d="m1152.24079,1058.98615c-92.15797,-43.78541 -150.80395,-116.7611 -174.26234,-217.30539c-18.43159,-74.59737 16.75599,-204.33193 68.69958,-257.84744c147.45275,-154.05979 413.87306,-129.73456 516.08463,43.78541l26.80959,47.02878l221.17913,0l221.17913,0l5.0268,-149.19474l5.0268,-150.81642l242.96192,0l242.96192,0l5.0268,102.16596l5.0268,100.54428l-135.72355,0l-134.04796,0l0,154.05979l0,154.05979l-333.44429,0l-333.44429,0l-36.86319,58.38055c-87.13117,136.22129 -261.39351,184.87175 -412.19746,115.13942zm191.01834,-199.46688c70.37518,-47.02878 33.51199,-168.65493 -50.26798,-168.65493c-90.48237,0 -132.37236,120.00447 -60.32158,168.65493c20.10719,14.59514 45.24118,25.94691 55.29478,25.94691c10.0536,0 35.18759,-11.35177 55.29478,-25.94691z"/>
    </g>
  </mask>
 </defs>
 <rect width="100%" height="100%" fill="url(#my45DegreeGradient)" mask="url(#mask)"/>
</svg>