<svg width="1080" height="1080" xmlns="http://www.w3.org/2000/svg" xml:space="preserve" version="1.1">

 <g>
  <title>Layer 1</title>
  <g stroke="null" id="svg_38">
   <g stroke="null" id="3053b1e2-8453-4ce7-92cf-b566a0a719f8" transform="matrix(1.65685 0 0 1.65685 554.419 555.861)"/>
   <g stroke="null" id="80bfd2d2-acf7-49c1-9c14-872d11f47cc5" transform="matrix(1.1598 0 0 5.18594 127.714 529.036)">
    <rect stroke=" rgb(0,0,0)" id="svg_2" fill-rule=" nonzero" fill=" rgb(255,255,255)" stroke-miterlimit="4" stroke-linejoin=" miter" stroke-dashoffset="0" stroke-linecap=" butt" stroke-dasharray=" none" stroke-width="0" height="66.17" width="66.17" y="-33.085" x="-33.085" vector-effect="non-scaling-stroke"/>
   </g>
   <g stroke="null" id="bd3cf37d-d781-4f0e-8357-99bea342700e" transform="matrix(4.92084 0 0 0.99411 413.322 466.54)">
    <rect stroke=" rgb(0,0,0)" id="svg_3" fill-rule=" nonzero" fill=" rgb(249,220,78)" stroke-miterlimit="4" stroke-linejoin=" miter" stroke-dashoffset="0" stroke-linecap=" butt" stroke-dasharray=" none" stroke-width="0" height="66.17" width="66.17" y="-33.085" x="-33.085" vector-effect="non-scaling-stroke"/>
   </g>
   <g stroke="null" id="8235a57e-5eaf-4a05-bbaf-8a4770b66cc4" transform="matrix(6.99191 0 0 4.24154 549.946 198.876)">
    <rect stroke=" rgb(0,0,0)" id="svg_4" fill-rule=" nonzero" fill=" rgb(255,255,255)" stroke-miterlimit="4" stroke-linejoin=" miter" stroke-dashoffset="0" stroke-linecap=" butt" stroke-dasharray=" none" stroke-width="0" height="66.17" width="66.17" y="-33.085" x="-33.085" vector-effect="non-scaling-stroke"/>
   </g>
   <g stroke="null" id="01d0d782-124d-47b2-8a78-991166ee7dba" transform="matrix(3.24743 0 0 0.878131 715.249 653.366)">
    <rect stroke=" rgb(0,0,0)" id="svg_5" fill-rule=" nonzero" fill=" rgb(78,216,213)" stroke-miterlimit="4" stroke-linejoin=" miter" stroke-dashoffset="0" stroke-linecap=" butt" stroke-dasharray=" none" stroke-width="0" height="66.167" width="66.167" y="-33.0835" x="-33.0835" vector-effect="non-scaling-stroke"/>
   </g>
   <g stroke="null" id="aa4ec04c-910a-42ff-a60d-aff3e5c1a962" transform="matrix(3.23086 0 0 0.679309 721.231 467.832)">
    <rect stroke=" rgb(0,0,0)" id="svg_6" fill-rule=" nonzero" fill=" rgb(255,77,120)" stroke-miterlimit="4" stroke-linejoin=" miter" stroke-dashoffset="0" stroke-linecap=" butt" stroke-dasharray=" none" stroke-width="0" height="66.17" width="66.17" y="-33.085" x="-33.085" vector-effect="non-scaling-stroke"/>
   </g>
   <g stroke="null" id="9bd2a9e3-e653-4e52-8c0a-006b06fc9e87" transform="matrix(4.93741 0 0 0.927836 360.22 558.164)">
    <rect stroke=" rgb(0,0,0)" id="svg_7" fill-rule=" nonzero" fill=" rgb(78,216,213)" stroke-miterlimit="4" stroke-linejoin=" miter" stroke-dashoffset="0" stroke-linecap=" butt" stroke-dasharray=" none" stroke-width="0" height="66.167" width="66.167" y="-33.0835" x="-33.0835" vector-effect="non-scaling-stroke"/>
   </g>
   <g stroke="null" id="32f57dfb-6c9d-4286-8e89-b928c3631c53" transform="matrix(4.97055 0 0 0.844994 417.795 657.757)">
    <rect stroke=" rgb(0,0,0)" id="svg_8" fill-rule=" nonzero" fill=" rgb(249,220,78)" stroke-miterlimit="4" stroke-linejoin=" miter" stroke-dashoffset="0" stroke-linecap=" butt" stroke-dasharray=" none" stroke-width="0" height="66.167" width="66.167" y="-33.0835" x="-33.0835" vector-effect="non-scaling-stroke"/>
   </g>
   <g stroke="null" id="db4e503b-1170-49fb-9d80-cfff60bbd98a" transform="matrix(5.05339 0 0 0.745583 359.093 374.866)">
    <rect stroke=" rgb(0,0,0)" id="svg_9" fill-rule=" nonzero" fill=" rgb(78,216,213)" stroke-miterlimit="4" stroke-linejoin=" miter" stroke-dashoffset="0" stroke-linecap=" butt" stroke-dasharray=" none" stroke-width="0" height="66.17" width="66.17" y="-33.085" x="-33.085" vector-effect="non-scaling-stroke"/>
   </g>
   <g stroke="null" id="svg_10" transform="matrix(0.215391 0 0 -0.215391 540.783 377.451)">
    <path stroke=" none" id="svg_11" fill-rule=" nonzero" fill=" rgb(24,49,109)" stroke-miterlimit="4" stroke-linejoin=" miter" stroke-dashoffset="0" stroke-dasharray=" none" stroke-linecap=" butt" d="m-2310,1691.87012c-49,-16 -133,-102 -148,-153c-9,-32 -12,-415 -12,-1643l0,-1601l2470,0l2470,0l0,1601c0,1228 -3,1611 -12,1643c-16,55 -99,138 -154,154c-57,17 -4561,16 -4614,-1zm2533,-257c13,-11 28,-31 31,-46c5,-19 -40,-165 -165,-542c-94,-284 -178,-529 -185,-543c-7,-14 -27,-32 -44,-39c-41,-17 -91,5 -109,49c-12,28 -1,66 164,562c128,383 184,539 201,556c29,28 73,30 107,3zm-676,-92c17,-15 23,-33 23,-62c0,-38 -7,-46 -192,-233l-192,-193l192,-193c181,-182 192,-195 192,-231c0,-48 -36,-86 -82,-86c-29,0 -57,25 -270,237c-232,231 -238,239 -238,277c0,39 7,47 233,273c224,225 234,233 272,233c26,0 46,-7 62,-22zm1240,-211c226,-226 233,-234 233,-273c0,-38 -6,-46 -238,-277c-213,-212 -241,-237 -270,-237c-46,0 -82,38 -82,86c0,36 11,49 192,231l192,193l-192,193c-183,184 -192,195 -192,232c0,54 31,85 84,85c40,0 46,-6 273,-233zm-2622,-1053c19,-8 45,-55 45,-84c0,-12 -13,-35 -29,-51c-27,-27 -35,-29 -101,-29c-66,0 -74,2 -101,29c-16,16 -29,39 -29,51c0,26 25,77 42,83c19,8 153,8 173,1zm1719,-15c20,-16 26,-29 26,-57c-1,-44 -16,-67 -54,-82c-18,-6 -250,-10 -672,-10c-682,0 -691,1 -708,45c-13,34 -6,79 16,102l21,23l672,0c665,0 673,0 699,-21zm-1730,-409c38,-14 59,-53 52,-95c-10,-51 -45,-70 -126,-70c-81,0 -116,19 -126,70c-7,40 13,81 49,95c30,12 120,12 151,0zm1992,-23c31,-37 31,-81 -1,-112l-24,-25l-676,0l-676,0l-24,25c-41,40 -26,113 29,135c11,5 320,8 684,7l664,-2l24,-28zm1111,-1c20,-24 24,-36 19,-65c-11,-73 2,-71 -467,-71c-404,0 -420,1 -439,20c-44,44 -33,111 22,135c27,12 103,14 436,12l404,-2l25,-29zm-3076,-425c36,-36 37,-70 3,-110c-25,-30 -29,-31 -104,-31c-75,0 -79,1 -104,31c-34,40 -33,74 3,110c27,27 35,29 101,29c66,0 74,-2 101,-29zm1710,0c27,-33 25,-86 -6,-116l-24,-25l-670,0l-670,0l-25,23c-38,34 -39,85 -1,123l25,24l676,-2l676,-3l19,-24zm-1726,-407c19,-8 45,-55 45,-84c0,-12 -13,-35 -29,-51c-27,-27 -35,-29 -101,-29c-66,0 -74,2 -101,29c-16,16 -29,39 -29,51c0,26 25,77 42,83c19,8 153,8 173,1zm1980,-19c32,-31 32,-75 1,-112l-24,-28l-677,0l-677,0l-24,28c-31,37 -31,81 1,112l24,25l676,0l676,0l24,-25zm1105,5c43,-43 34,-110 -20,-137c-36,-18 -804,-18 -840,0c-53,27 -62,96 -18,137c21,19 34,20 440,20c403,0 419,-1 438,-20z" vector-effect="non-scaling-stroke"/>
   </g>
   <g stroke="null" id="svg_12" transform="matrix(0.215391 0 0 -0.215391 540.75 807.105)">
    <path stroke=" none" id="svg_13" fill-rule=" nonzero" fill=" rgb(179,193,201)" stroke-miterlimit="4" stroke-linejoin=" miter" stroke-dashoffset="0" stroke-dasharray=" none" stroke-linecap=" butt" d="m-2468,92.5c3,-228 9,-250 81,-319c76,-75 -125,-69 2402,-67c2222,3 2271,3 2309,22c50,25 97,72 122,122c16,34 19,65 22,242l3,202l-2471,0l-2471,0l3,-202z" vector-effect="non-scaling-stroke"/>
   </g>
   <g stroke="null" id="svg_14" transform="matrix(0.215391 0 0 -0.215391 548.073 933.01)">
    <path stroke=" none" id="svg_15" fill-rule=" nonzero" fill=" rgb(151,170,178)" stroke-miterlimit="4" stroke-linejoin=" miter" stroke-dashoffset="0" stroke-dasharray=" none" stroke-linecap=" butt" d="m-680,251.5c0,-65 -36,-192 -72,-256c-63,-111 -192,-215 -331,-267l-62,-23l1145,0l1145,0l-62,23c-139,52 -268,156 -331,267c-36,64 -72,191 -72,256l0,43l-680,0l-680,0l0,-43z" vector-effect="non-scaling-stroke"/>
   </g>
   <g stroke="null" id="svg_16" transform="matrix(0.215391 0 0 -0.215391 546.913 1031.05)">
    <path stroke=" none" id="svg_17" fill-rule=" nonzero" fill=" rgb(179,193,201)" stroke-miterlimit="4" stroke-linejoin=" miter" stroke-dashoffset="0" stroke-dasharray=" none" stroke-linecap=" butt" d="m-1275,142c-45,-25 -85,-92 -85,-143c0,-51 40,-115 90,-141l43,-23l1227,0l1227,0l43,23c50,26 90,90 90,141c0,51 -40,118 -85,143l-40,23l-1235,0l-1235,0l-40,-23z" vector-effect="non-scaling-stroke"/>
   </g>
   <g stroke="null" id="svg_18" transform="matrix(0 0 0 0 -340.28 -338.838)">
    <g stroke="null" id="svg_19"/>
   </g>
   <g stroke="null" id="svg_20" transform="matrix(0 0 0 0 -340.28 -338.838)">
    <g stroke="null" id="svg_21"/>
   </g>
   <g stroke="null" id="svg_22">
    <g stroke="null" id="svg_23"/>
   </g>
   <g stroke="null" id="svg_24">
    <g stroke="null" id="svg_25"/>
   </g>
   <g stroke="null" id="svg_26">
    <g stroke="null" id="svg_27"/>
   </g>
   <g stroke="null" id="svg_28">
    <g stroke="null" id="svg_29"/>
   </g>
   <g stroke="null" id="svg_30">
    <g stroke="null" id="svg_31"/>
   </g>
   <g stroke="null" id="svg_32">
    <g stroke="null" id="svg_33"/>
   </g>
   <g stroke="null" id="svg_34">
    <g stroke="null" id="svg_35"/>
   </g>
   <g stroke="null" id="svg_36">
    <g stroke="null" id="svg_37"/>
   </g>
  </g>
 </g>
</svg>